# xmcd CD database file
#
# Track frame offsets:
#	150
#	34350
#	61560
#	89698
#	121078
#	123143
#	149078
#	182718
#	212118
#
# Disc length: 3182 seconds
#
# Revision: 1
# Processed by: cddbd v1.4PL0 Copyright (c) Steve Scherf et al.
# Submitted via: CDex 1.50
#
DISCID=810c6c09
DTITLE=Lester Young - The president (Vol. 6)
DYEAR=1900
DGENRE=Jazz
TTITLE0=In a little spanish town
TTITLE1=Lester leaps in
TTITLE2=Up and at'em
TTITLE3=I can't get started
TTITLE4=Lester leaps in
TTITLE5=Theme (LOB)
TTITLE6=Indiana
TTITLE7=New D.B. Blues
TTITLE8=Indiana
EXTD=
EXTT0=
EXTT1=
EXTT2=
EXTT3=
EXTT4=
EXTT5=
EXTT6=
EXTT7=
EXTT8=
PLAYORDER=
